# xmcd CD database file
#
# Track frame offsets:
#	150
#	12558
#	22405
#	33140
#	47180
#	62921
#	72550
#	82680
#	95213
#	110827
#	121528
#	133844
#	146349
#	159210
#
# Disc length: 2225 seconds
#
# Revision: 2
# Processed by: cddbd v1.5.2PL0 Copyright (c) Steve Scherf et al.
# Submitted via: CDex 1.70beta2
#
DISCID=c308af0e
DTITLE=Various Artist - The Great Country Gospel Album
DYEAR=2000
DGENRE=Gospel
TTITLE0=The Oakridge Boys - The Shelter of His Arms
TTITLE1=John Anderson - Swoop Down Sweet Jesus
TTITLE2=The Blackwood Brothers - I'm Winging My Way Back Home
TTITLE3=Ralph Stanley - Let Me Walk Lord by Your Side
TTITLE4=J.D. Sumner and The Stamps - Faith Unlocks the Door
TTITLE5=Jerry Lee Lewis - When the Saints Come Marching in
TTITLE6=Johnny Cash - I Was There When It Happened
TTITLE7=Charlie Rich - Big Man
TTITLE8=Jones Boys - Amazing Grace
TTITLE9=Southern Jubilee Singers - There's a Man in Jerusalem
TTITLE10=Charlie Louvin - The Family Who Prays
TTITLE11=The Oakridge Boys - You'll Never Walk Along
TTITLE12=Carl Perkins - Hallelujah Special
TTITLE13=Johnny Cash - If The Good Lord's Willing
EXTD=YEAR: 2000
EXTT0=
EXTT1=
EXTT2=
EXTT3=
EXTT4=
EXTT5=
EXTT6=
EXTT7=
EXTT8=
EXTT9=
EXTT10=
EXTT11=
EXTT12=
EXTT13=
PLAYORDER=
